Coordinates
version=1
nRows=16
nColumns=36
inDegrees=yes

Units are S.I. units (second, meters, Newtons, ...)
If the header above contains a line with 'inDegrees', this indicates whether rotational values are in degrees (yes) or radians (no).

endheader
time	pelvis_tilt	pelvis_list	pelvis_rotation	pelvis_tx	pelvis_ty	pelvis_tz	hip_flexion_r	hip_adduction_r	hip_rotation_r	knee_angle_r	knee_angle_r_beta	ankle_angle_r	subtalar_angle_r	mtp_angle_r	hip_flexion_l	hip_adduction_l	hip_rotation_l	knee_angle_l	knee_angle_l_beta	ankle_angle_l	subtalar_angle_l	mtp_angle_l	lumbar_extension	lumbar_bending	lumbar_rotation	arm_flex_r	arm_add_r	arm_rot_r	elbow_flex_r	pro_sup_r	arm_flex_l	arm_add_l	arm_rot_l	elbow_flex_l	pro_sup_l
     44.60000000	      4.91931132	     -1.87980456	     -2.42912664	      0.58701304	      1.01932887	      0.70201734	    -19.73573871	      1.47848951	      4.76336677	     14.05093429	      0.24523507	     14.36394741	      0.71384621	     -7.49999987	     22.79264935	     -1.45253042	      0.63356081	     20.68288348	      0.36098442	      3.33431842	     -1.77447918	     -7.49999987	    -21.58876192	     -0.12099494	      7.08063185	      9.82527431	    -19.82611005	      7.79487291	     39.52664908	     80.45964879	     12.13403565	     -8.76386939	     20.45273308	     19.85682696	     89.53116648
     44.61666670	      5.07490892	     -1.56000582	     -2.09012239	      0.59430070	      1.02556990	      0.69730219	    -19.12794895	      0.94645665	      4.44993770	     16.95504535	      0.29592137	     11.16308977	     -1.24604192	     -7.49999987	     21.97776963	     -0.72139383	      1.40348844	     22.03135358	      0.38451966	      2.61189764	     -2.94822467	     -7.49999987	    -21.67804689	     -0.61422305	      6.79938609	      8.98165629	    -19.50439614	      7.23548552	     38.61243755	     80.46087760	     12.22776017	     -9.11419427	     20.66156997	     20.28144163	     89.69100005
     44.63333330	      5.14564499	     -1.31167762	     -1.73678586	      0.59770122	      1.03143207	      0.69525825	    -17.71291215	      0.46088937	      3.81971632	     20.87413844	      0.36432244	      7.42959936	     -2.84433336	     -7.49999987	     21.10760905	     -0.17405660	      1.83710048	     23.16938159	      0.40438199	      2.50481474	     -3.31944406	     -7.49999987	    -21.68373915	     -0.98153373	      6.50052621	      8.00876376	    -18.93655471	      5.89976844	     37.59356453	     81.00049183	     12.57411353	     -9.56906054	     22.41687783	     20.00533893	     90.13210779
     44.65000000	      5.16304772	     -1.09962393	     -1.55188413	      0.59779767	      1.03424505	      0.69535774	    -15.44937427	     -0.02573250	      3.31166624	     25.84101043	      0.45101071	      3.18825099	     -4.59317856	     -7.49999987	     20.13308375	      0.22477502	      2.07884023	     23.95084624	      0.41802113	      2.70560173	     -3.67072919	     -7.49999987	    -21.72036205	     -1.33849897	      6.09070875	      7.27627654	    -18.50874946	      5.54384143	     36.72065319	     79.82299240	     12.71459612	     -9.86088765	     22.69174717	     19.68456255	     88.40329253
     44.66666670	      5.11290839	     -0.85051871	     -1.51303154	      0.59774950	      1.03435642	      0.69561780	    -12.35813911	     -0.56515385	      2.86535223	     31.76519431	      0.55440723	     -1.54413069	     -6.75291122	     -7.49999987	     19.00084755	      0.61151843	      2.25491258	     24.22545033	      0.42281387	      3.07279888	     -4.27072968	     -7.49999987	    -21.74645029	     -1.75976264	      5.70200233	      6.47085125	    -18.20648052	      5.36693993	     36.46245986	     79.99231152	     12.63330456	    -10.40798194	     23.02531446	     20.08031643	     88.59215151
     44.68333330	      4.91531740	     -0.55930695	     -1.77513770	      0.59907513	      1.03447143	      0.69509782	     -8.47627782	     -1.14532200	      2.70692988	     38.33529378	      0.66907710	     -6.31302435	     -9.33377712	     -7.49999987	     17.78460241	      0.94135435	      2.05950473	     24.04467090	      0.41965867	      3.85461259	     -4.70364679	     -7.49999987	    -21.59459615	     -2.29004873	      5.74785331	      5.38750978	    -17.53042198	      2.87922944	     36.27556378	     83.48516325	     12.81923783	    -10.95769998	     23.99363099	     20.20228637	     90.65095267
     44.70000000	      4.93604291	     -0.22268729	     -2.28291719	      0.60054262	      1.03654732	      0.69372959	     -4.68651193	     -1.75162341	      2.68912303	     44.50944234	      0.77683632	    -10.20744282	    -11.70451141	     -7.49999987	     16.04292871	      1.29559361	      1.61410915	     23.26196795	      0.40599793	      4.64182834	     -5.12369276	     -7.49999987	    -21.71956149	     -2.87489124	      5.31735744	      4.99374947	    -17.10102978	      2.63199147	     36.07371856	     82.39312853	     12.40842370	    -11.65826860	     23.60530924	     21.09344860	     89.24090915
     44.71666670	      4.90785332	     -0.00620073	     -2.89716459	      0.60045354	      1.03853092	      0.69165187	     -1.06206626	     -2.11614076	      2.77862235	     49.61751127	      0.86598894	    -12.47909028	    -13.61544756	     -7.49999987	     14.26931579	      1.51884502	      1.01174888	     22.24047591	      0.38816953	      5.37526442	     -5.42337674	     -7.49999987	    -21.70669860	     -3.34305811	      5.02461273	      4.69399699	    -16.73307908	      2.37791050	     35.66032121	     81.96994789	     12.10580528	    -12.30674712	     23.26006503	     21.86008609	     88.55965724
     44.73333330	      4.98848386	      0.01555392	     -3.38226402	      0.59938514	      1.03898476	      0.68868991	      2.01690977	     -2.13961084	      2.82029550	     53.41923745	      0.93234158	    -12.91566188	    -14.83399951	     -7.49999987	     12.42089551	      1.59075495	      0.50035244	     21.18981240	      0.36983199	      5.94875956	     -5.61446890	     -7.49999987	    -21.82855622	     -3.50756511	      4.80522483	      4.35767166	    -16.57595487	      2.06195910	     35.62864853	     81.74331754	     11.92979719	    -12.80554316	     22.72189154	     22.65824084	     88.13415471
     44.75000000	      4.99801800	     -0.08672102	     -3.73140223	      0.59913947	      1.03817369	      0.68581580	      4.76762473	     -1.83422645	      2.93420178	     56.13289913	      0.97970391	    -12.26572439	    -16.18306396	     -7.49999987	     10.78133833	      1.54855745	      0.09030513	     20.29402647	      0.35419758	      6.42037480	     -5.74237364	     -7.49999987	    -21.88421364	     -3.47944091	      4.68818162	      3.80194179	    -16.58351887	      1.84205715	     36.16260453	     80.99431260	     11.66966509	    -13.32312858	     22.12451517	     24.00586207	     87.13339112
     44.76666670	      5.09953133	     -0.32760201	     -3.93570204	      0.59952993	      1.03712870	      0.68362609	      7.10817279	     -1.33140831	      2.96577886	     58.07565104	      1.01361133	     -9.74193826	    -16.01547124	     -7.49999987	      9.20274020	      1.40742795	     -0.16228174	     19.62913597	      0.34259305	      7.02836208	     -5.87227716	     -7.49999987	    -21.82265896	     -3.24744547	      4.79483522	      3.58091239	    -16.53811963	      0.78081622	     35.43586732	     84.76194646	     12.11814346	    -13.22499037	     20.84368926	     23.57142549	     91.57726742
     44.78333330	      5.22921905	     -0.52755645	     -4.07287739	      0.59959211	      1.03659740	      0.68275591	      9.18407952	     -0.75532349	      2.99365968	     59.35930540	      1.03601532	     -6.93239989	    -16.05910429	     -7.49999987	      7.66049620	      1.31318168	     -0.38852937	     19.05173191	      0.33251545	      7.68590987	     -6.02969597	     -7.49999987	    -21.86517527	     -3.04946802	      4.75125644	      3.30323025	    -16.54866181	      0.41422115	     35.13794394	     84.06390397	     12.29693086	    -13.44500514	     19.88668151	     24.12488555	     90.72593763
     44.80000000	      5.42314133	     -0.75015008	     -4.06699597	      0.59925245	      1.03720965	      0.68225444	     10.93248717	     -0.13683443	      2.83687068	     59.89094785	      1.04529423	     -3.92800782	    -15.88168446	     -7.49999987	      6.05516328	      1.25655205	     -0.24320738	     18.53694051	      0.32353065	      8.33032429	     -6.30308668	     -7.49999987	    -21.98016280	     -2.81440107	      4.65356805	      3.03832928	    -16.64615864	      0.31469447	     34.81316209	     83.65550486	     12.65668936	    -13.74835197	     19.30763977	     24.58204007	     90.25871164
     44.81666670	      5.53593913	     -0.93213968	     -4.11798401	      0.59809618	      1.03836062	      0.68182598	     12.74183796	      0.41711911	      2.60441513	     60.26616969	      1.05184309	     -1.16069856	    -15.70683089	     -7.49999987	      4.55643470	      1.14763388	     -0.59316672	     18.09106840	      0.31574871	      9.26042461	     -5.99453617	     -7.49999987	    -21.80276560	     -2.62970264	      4.76306859	      2.75464482	    -16.74166981	      0.54203031	     34.04750188	     84.15542744	     13.50563383	    -13.96211467	     19.14885309	     24.26760498	     90.95314059
     44.83333330	      5.75449712	     -1.12521730	     -3.98327222	      0.59596244	      1.03867572	      0.68037458	     14.36237753	      0.91572980	      2.23147061	     60.13835489	      1.04961230	      1.35268933	    -15.18811294	     -7.49999987	      2.90730303	      1.12486199	     -0.34217885	     17.52307627	      0.30583538	      9.84997882	     -6.24114404	     -7.49999987	    -21.90193322	     -2.35372579	      4.61785482	      2.42550795	    -16.79850821	      0.55892279	     33.73127974	     83.68336671	     14.04223677	    -14.39408538	     18.88928780	     24.84929086	     90.33242471
     44.85000000	      5.80323669	     -1.24277290	     -3.78722392	      0.59248481	      1.03835705	      0.67827853	     16.26630440	      1.33397746	      1.98853818	     59.70161317	      1.04198972	      2.92219688	    -14.91532858	     -7.49999987	      1.54783212	      1.12020369	     -0.26519385	     17.03071668	      0.29724208	     10.78140920	     -5.78027124	     -7.49999987	    -21.74968094	     -2.21697107	      5.09261103	      1.52014236	    -16.99007291	      0.27496724	     33.56655573	     86.04645103	     15.67065449	    -14.59184547	     20.41644264	     24.06587948	     93.25004918
